<svg class="svg__bench" version="1.1" id="Layer_1" xmlns="http://www.w3.org/2000/svg" xmlns:xlink="http://www.w3.org/1999/xlink" x="0px" y="0px"
	 width="186.34px" height="149.5px" viewBox="0 0 186.34 149.5" enable-background="new 0 0 186.34 149.5" xml:space="preserve">
<path fill-rule="evenodd" clip-rule="evenodd" d="M94.306,25.355c-0.386,1.945-0.92,3.531-0.98,5.135
	c-0.228,6.003-1.605,11.763-3.337,17.47c-0.473,1.556-0.574,3.272-2.323,4.181c0.055,0.093,0.111,0.186,0.166,0.278
	c0.839,0.062,1.677,0.139,2.517,0.182c2.822,0.143,5.478,0.922,8.126,1.878c4.949,1.788,9.956,3.418,14.931,5.137
	c1.241,0.429,2.418,1.099,3.686,1.379c1.214,0.268,2.525,0.34,3.763,0.208c4.517-0.484,9.012-0.312,13.512,0.15
	c4.569,0.47,9.14,0.917,13.711,1.366c1.868,0.184,3.747,0.277,5.604,0.535c2.575,0.356,4.542,1.784,5.442,4.174
	c0.863,2.292,1.343,4.736,1.883,7.139c0.935,4.162,1.805,8.338,2.662,12.517c0.409,1.991,0.835,3.989,1.062,6.005
	c0.433,3.854,3.309,5.846,6.373,6.559c2.102,0.489,2.321,0.911,1.324,2.832c-1.188,2.284-2.837,3.105-5.566,2.705
	c-0.865-0.126-1.771-0.241-2.558-0.588c-1.661-0.733-3.249-0.362-4.913-0.064c-1.78,0.319-3.603,0.474-5.412,0.539
	c-1.261,0.045-1.431,0.121-1.032,1.339c1.227,3.755,2.449,7.51,3.703,11.255c0.659,1.968,0.143,4.031-1.319,5.365
	c-0.246,0.225-0.362,0.762-0.305,1.115c0.142,0.86,0.44,1.692,0.642,2.544c0.458,1.94,1.482,3.529,3.008,4.784
	c1.049,0.862,2.146,1.668,3.236,2.478c1.248,0.927,1.459,1.724,0.705,3.08c-0.915,1.647-2.4,2.501-4.184,2.933
	c-3.938,0.954-7.188-0.214-9.754-3.262c-0.565-0.672-0.921-1.579-1.179-2.437c-0.33-1.098-0.824-1.796-2.055-2.008
	c-2.091-0.36-3.707-1.675-5.164-3.097c-1.484-1.446-1.324-2.767,0.033-4.321c0.357-0.408,0.521-1.377,0.287-1.845
	c-1.352-2.705-1.383-5.436-0.904-8.374c0.454-2.797-0.682-5.333-2.403-7.565c-0.049-0.063-0.121-0.114-0.152-0.184
	c-1.963-4.449-4.603-8.724-3.649-13.934c0.099-0.541,0.281-1.066,0.485-1.823c-0.476-0.093-0.946-0.273-1.411-0.259
	c-1.396,0.046-2.789,0.209-4.186,0.248c-1.858,0.053-2.714-0.441-3.221-2.209c-0.484-1.686-1.58-2.316-3.151-2.374
	c-3.87-0.144-7.74-0.306-11.612-0.349c-4.143-0.045-8.132-1.154-10.743-4.202c-2.593-3.026-6.04-4.085-9.276-5.611
	c-1.774-0.837-4.051-0.731-6.11-0.811c-2.753-0.106-5.516,0.018-8.274,0.052c-1.268,0.016-2.351-0.375-3.498-0.979
	c-1.529-0.805-3.275-1.205-4.94-1.74c-0.871-0.28-1.762-0.511-2.656-0.708c-3.017-0.666-4.579-2.729-5.315-5.551
	c-0.211-0.81-0.488-1.319-1.446-1.426c-3.283-0.366-5.645-3.079-5.742-6.413c-0.06-2.058,0.565-3.907,1.432-5.739
	c0.311-0.655,0.446-1.542,0.295-2.244c-0.96-4.439-2.024-8.856-3.051-13.281c-0.045-0.194-0.124-0.405-0.088-0.589
	c0.448-2.305-1.393-3.395-2.579-4.817c-0.133-0.159-0.583-0.161-0.844-0.087c-1.456,0.408-2.899,0.862-4.219,1.261
	c0.17,2.213,0.44,4.339,0.473,6.469c0.048,3.239-0.691,6.331-2.15,9.241c-4.386,8.747-15.393,8.918-20.894,4.08
	c-2.852-2.508-4.808-5.632-6.319-9.07c-0.224-0.508-0.439-1.02-0.687-1.596c-2.054,0.592-4.059,1.223-6.092,1.743
	c-2.734,0.701-4.821-1.374-4.013-4.001c0.145-0.469,0.663-0.979,1.129-1.163c1.146-0.45,2.363-0.716,3.549-1.062
	c1.182-0.344,2.361-0.695,3.283-0.967c0-2.283-0.131-4.437,0.035-6.567c0.179-2.297,0.438-4.624,1.013-6.847
	c1.183-4.573,4.321-7.134,8.951-7.858c7.013-1.097,12.574,1.227,16.49,7.201c1.509,2.302,2.879,4.695,4.39,7.173
	c2.013-0.593,4.102-1.208,6.191-1.823c0.077-0.023,0.214-0.045,0.218-0.079c0.182-1.718,1.811-1.646,2.858-2.244
	c0.677-0.387,1.562-0.397,2.266-0.75c1.447-0.726,2.312,0.096,3.27,0.963c0.281,0.254,0.878,0.356,1.269,0.265
	c9.437-2.213,18.866-4.461,28.294-6.709c0.523-0.125,0.912-0.257,1.165-0.952c0.23-0.632,1.045-1.353,1.698-1.461
	c1.092-0.181,1.18-0.789,1.325-1.61c0.676-3.825,2.291-7.069,5.884-8.97c6.091-3.221,16.118,0.182,16.466,9.886
	c0.119,3.338-0.696,6.423-2.655,9.144c-1.579,2.193-3.916,3.161-6.49,3.373c-1.731,0.143-3.508-0.049-5.245-0.254
	C96.989,28.601,95.793,27.046,94.306,25.355z M55.598,35.731c0.237,2.229,1.044,4.198,1.981,6.161
	c1.062,2.225,2.048,4.499,2.874,6.82c0.806,2.267,0.706,2.34,3.064,1.928c0.808-0.141,1.158,0.072,1.395,0.846
	c0.107,0.352,0.533,0.732,0.898,0.859c1.894,0.663,3.703,1.431,4.852,3.197c0.564,0.866,1.144,0.855,1.993,0.339
	c1.824-1.11,3.627-2.342,5.603-3.089c1.761-0.666,3.004-1.397,3.567-3.343c0.694-2.398,1.963-4.64,2.565-7.054
	c0.651-2.608,1.581-5.052,3.137-7.187c2.053-2.814,3.121-6,3.941-9.298c0.184-0.741,0.236-2.091-0.125-2.287
	c-1.27-0.689-2.496-2.124-3.965-1.772c-9.573,2.289-19.108,4.737-28.646,7.167c-0.392,0.1-0.834,0.466-1.019,0.828
	c-0.595,1.163-1.131,2.362-1.589,3.585C55.851,34.162,55.767,34.962,55.598,35.731z M145.365,78.922
	c1.284,4.083,2.618,8.326,4.011,12.754c0.156-1.337,0.263-2.48,0.429-3.615c0.167-1.143,0.405-2.274,0.59-3.414
	c0.377-2.33-0.845-4.253-3.101-4.971C146.553,79.439,145.841,79.11,145.365,78.922z"/>
</svg>
