<svg class="svg__run" version="1.1" id="Layer_1" xmlns="http://www.w3.org/2000/svg" xmlns:xlink="http://www.w3.org/1999/xlink" x="0px" y="0px"
	 width="75px" height="139.25px" viewBox="0 0 75 139.25" enable-background="new 0 0 75 139.25" xml:space="preserve">
<path fill-rule="evenodd" clip-rule="evenodd" d="M30.237,80.247c-3.482,1.782-7.169,3.6-10.785,5.551
	c-1.781,0.96-1.69,1.046-0.437,2.569c1.04,1.262,2.034,2.565,2.976,3.902c1.139,1.615,1.73,3.441,2.248,5.364
	c0.888,3.302,1.958,6.584,3.317,9.716c0.513,1.182,1.247,2.439,2.558,3.362c1.584,1.114,2.711,2.9,3.938,4.472
	c0.154,0.196-0.152,1.065-0.47,1.266c-1.579,0.996-3.216,1.903-4.865,2.781c-1.15,0.612-2.402,1.041-3.518,1.705
	c-2.101,1.25-4.142,2.598-6.71,2.626c-0.398,0.004-0.884,0.108-1.175-0.076c-0.595-0.377-1.389-0.846-1.524-1.414
	c-0.112-0.472,0.482-1.287,0.977-1.688c0.817-0.661,1.947-0.964,2.692-1.68c1.423-1.368,2.674-2.896,2.249-5.148
	c-0.12-0.636-0.03-1.215,0.489-1.9c0.414-0.546,0.044-1.844-0.242-2.721c-0.379-1.162-0.882-2.329-1.564-3.338
	c-3.285-4.864-6.497-9.789-10.038-14.464c-2.183-2.881-2.375-5.61-0.528-8.48c1.829-2.842,3.757-5.647,5.917-8.241
	c1.917-2.304,4.388-4.044,7.056-5.489c2.256-1.222,2.38-1.846,1.911-4.359c-0.46-2.466-0.705-4.972-1.12-7.447
	c-0.234-1.397-0.622-2.769-0.971-4.287c-3.018-0.179-5.913-0.324-8.803-0.539c-1.026-0.076-2.068-0.231-3.043-0.538
	c-0.38-0.12-0.855-0.767-0.84-1.157c0.047-1.201,0.223-2.415,0.514-3.583c0.267-1.071,1.694-1.847,2.688-1.657
	c0.123-0.519,0.246-1.037,0.444-1.871c1.199,1.299,2.299,2.309,3.155,3.493c0.449,0.621,0.77,0.891,1.517,0.739
	c1.008-0.204,2.035-0.313,3.149-0.477c-0.122-0.385-0.177-0.746-0.341-1.047c-1.284-2.351-0.792-4.719-0.075-7.08
	c0.232-0.762,0.64-1.472,0.848-2.238c0.339-1.254,0.702-2.523,0.83-3.809c0.134-1.343,0.418-2.511,1.675-3.109
	c-0.539-1.78-1.758-2.278-3.291-2.262c-0.635,0.006-1.083-0.139-1.185-0.872c-0.086-0.625-0.255-1.24-0.446-2.134
	c0.053-0.029,0.364-0.2,0.424-0.232c-0.405-0.599-0.72-1.076-1.049-1.542c-0.124-0.175-0.249-0.384-0.426-0.48
	c-1.158-0.628-1.295-0.938-0.491-1.957c0.647-0.821,1.093-1.556,0.436-2.569c-0.105-0.161-0.057-0.499,0.039-0.699
	c0.599-1.262,0.578-2.493,0.132-3.82c-0.151-0.45,0.125-1.183,0.436-1.624c1.814-2.574,6.52-4.267,9.554-3.511
	c2.246,0.559,4.314,3.335,4.777,6.245c0.319,2.007-0.17,3.816-1.153,5.51c-0.941,1.623-0.667,3.236-0.091,4.844
	c0.144,0.401,0.546,0.788,0.929,1.011c1.871,1.088,3.474,2.395,4.927,4.069c1.895,2.182,3.603,4.533,6.447,5.921
	c2.855,1.393,5.493,3.392,7.478,6.058c0.64,0.859,0.491,1.591,0.154,2.45c-1.774,4.521-4.446,8.471-7.579,12.146
	c-0.953,1.118-2.312,2.243-2.533,3.529c-0.213,1.233,0.767,2.695,1.294,4.028c0.908,2.3,1.914,4.819,0.902,7.078
	c-1.457,3.255-0.562,6.116,0.557,8.992c1.105,2.843,1.377,5.798,1.847,8.747c0.467,2.938,1.251,5.747,3.631,7.875
	c1.242,1.109,2.348,2.421,3.299,3.791c0.873,1.259,1.688,2.65,2.121,4.104c1.124,3.765,2.834,7.231,5.164,10.338
	c1.122,1.496,2.804,2.565,4.176,3.885c1.105,1.064,2.127,2.215,3.264,3.409c-1.323,1.972-3.169,3.224-5.181,4.31
	c-0.819,0.442-1.672,0.937-2.298,1.605c-2.529,2.702-5.507,3.894-9.158,2.914c-0.557-0.149-1.12-0.617-1.476-1.091
	c-0.567-0.758-0.26-1.434,0.645-1.736c0.188-0.063,0.388-0.097,0.579-0.152c2.437-0.701,3.521-2.148,3.602-4.667
	c0.024-0.729,0.271-1.45,0.37-2.181c0.032-0.243-0.079-0.507-0.127-0.761c-0.041-0.215-0.194-0.496-0.111-0.634
	c0.715-1.172,0.517-2.302-0.249-3.298c-1.407-1.829-2.829-3.657-4.379-5.364c-1.855-2.045-3.657-4.082-5.036-6.52
	c-0.948-1.675-2.299-3.147-3.607-4.585c-1.215-1.335-2.321-2.653-3.081-4.354c-1.068-2.395-2.51-4.62-3.761-6.935
	C33.3,86.045,31.825,83.234,30.237,80.247z M40.702,41.956c-0.024,0.453-0.069,0.795-0.058,1.136
	c0.113,3.283,0.026,6.532-1.07,9.693c-0.229,0.657-0.033,1.46-0.033,2.196c0.873-0.938,1.504-1.977,2.203-2.968
	c1.635-2.318,1.941-5.015,2.215-7.713c0.033-0.333-0.208-0.866-0.484-1.029C42.628,42.776,41.701,42.417,40.702,41.956z"/>
</svg>
