<svg class="svg__sit-up" version="1.1" id="Layer_1" xmlns="http://www.w3.org/2000/svg" xmlns:xlink="http://www.w3.org/1999/xlink" x="0px" y="0px"
	 width="146px" height="86.375px" viewBox="0 0 146 86.375" enable-background="new 0 0 146 86.375" xml:space="preserve">
<path fill-rule="evenodd" clip-rule="evenodd" d="M63.487,45.419c0-0.935,0.021-1.589-0.005-2.242
	c-0.038-0.931,0.255-1.485,1.311-1.274c1.52,0.304,2.455-0.567,3.118-1.716c3.102-5.364,7.552-9.589,11.784-13.991
	c1.52-1.58,3.198-3.016,4.875-4.435c2.844-2.406,6.694-2.683,9.787-0.627c2.616,1.738,4.91,3.83,6.358,6.713
	c3.079,6.128,6.161,12.256,9.293,18.358c1.057,2.059,2.257,4.045,3.412,6.053c1.102,1.916,2.866,3.047,4.771,4.04
	c1.555,0.811,3.053,1.73,4.573,2.606c0.139,0.079,0.289,0.166,0.382,0.288c1.362,1.792,3.174,2.75,5.359,3.269
	c0.791,0.188,1.569,0.99,2.069,1.71c0.636,0.915,1.386,1.249,2.416,1.217c0.479-0.016,0.96-0.017,1.439,0.003
	c0.904,0.035,1.364,0.532,1.474,1.42c0.293,2.389-0.378,3.823-2.655,4.81c-3.29,1.425-6.8,1.718-10.332,1.368
	c-1.601-0.158-3.08-0.097-4.691,0.194c-2.191,0.396-4.53,0.185-6.779-0.032c-1.292-0.125-2.017-1.317-1.998-2.89
	c0.015-1.287-0.569-1.751-1.734-1.946c-2.126-0.354-2.919-1.34-3.052-3.481c-0.117-1.866,0.063-3.66,0.952-5.35
	c0.256-0.487,0.355-1.055,0.549-1.577c0.344-0.922,0.114-1.649-0.528-2.407c-3.689-4.349-7.952-8.083-12.319-11.718
	c-0.902-0.751-1.62-1.724-2.601-2.787c-0.35,0.717-0.662,1.249-0.877,1.818c-1.322,3.502-2.16,7.201-4.263,10.387
	c-0.551,0.833-0.932,1.802-1.584,2.537c-1.406,1.586-1.403,3.367-1.081,5.277c0.461,2.731,0.094,3.4-2.271,4.923
	c-1.273,0.818-2.506,1.71-3.688,2.656c-3.16,2.532-6.669,3.957-10.79,3.942c-6.914-0.023-13.809,0.021-20.623-1.531
	c-3.577-0.814-6.537-2.695-9.492-4.672c-1.063-0.711-2.061-1.527-3.158-2.177c-5.584-3.306-8.897-8.571-11.699-14.102
	c-1.146-2.262-1.29-5.069-1.696-7.659c-0.645-4.099,0.291-8.09,1.133-12.069c0.294-1.389,0.721-2.75,0.97-4.146
	c0.092-0.515-0.068-1.124-0.263-1.633c-0.768-2.006-1.655-3.968-2.386-5.987c-1.085-2.996-1.284-5.964,0.924-8.597
	c0.998-1.19,2.088-2.326,3.272-3.325c0.598-0.505,1.523-0.962,2.258-0.904c2.924,0.229,5.939-0.12,8.732,1.121
	c0.835,0.372,1.683,0.731,2.47,1.19c0.624,0.364,0.838,0.894,0.349,1.609c-0.226,0.33-0.441,1.01-0.28,1.191
	c0.353,0.396,0.938,0.777,1.448,0.804c1.743,0.091,3.495,0.001,5.243,0.031c1.179,0.02,2.173,0.464,2.836,1.501
	c1.872,2.924,3.85,5.788,5.587,8.791c1.307,2.26,1.286,4.824,0.758,7.324c-0.123,0.581-0.799,1.043-1.219,1.562
	c-0.737,0.911-1.466,1.829-2.212,2.732c-0.252,0.305-0.522,0.603-0.825,0.854c-0.613,0.511-1.26,0.983-1.884,1.482
	c-2.146,1.712-2.138,1.708-0.488,3.893c0.287,0.379,0.559,0.799,0.715,1.243c0.774,2.209,2.488,3.452,4.459,4.45
	c0.819,0.415,1.595,0.966,2.46,1.225c0.875,0.263,1.836,0.308,2.759,0.302c0.239-0.002,0.55-0.518,0.698-0.854
	c0.855-1.938,3.701-2.69,5.393-1.408C62.647,44.963,62.936,45.096,63.487,45.419z M41.291,21.654
	c-1.463,0.22-2.969,2.265-2.673,3.536C40.582,25.138,41.777,23.604,41.291,21.654z"/>
</svg>
