<svg class="svg__sit-reach" version="1.1" id="Layer_1" xmlns="http://www.w3.org/2000/svg" xmlns:xlink="http://www.w3.org/1999/xlink" x="0px" y="0px"
	 width="175.5px" height="101.5px" viewBox="0 0 175.5 101.5" enable-background="new 0 0 175.5 101.5" xml:space="preserve">
<path fill-rule="evenodd" clip-rule="evenodd" d="M84.567,70.928c0.805,1.896,1.457,3.615,2.28,5.248
	c0.227,0.449,0.963,0.906,1.467,0.908c4.793,0.022,9.586-0.053,14.379-0.099c1.207-0.011,2.238-0.407,3.153-1.226
	c2.36-2.111,4.252-4.545,5.414-7.514c0.263-0.669,0.541-1.332,0.834-1.987c0.33-0.739,0.754-1.358,1.817-0.974
	c0-6.431,0-12.733,0-19.118c16.229,0,32.368,0,48.604,0c0,13.818,0,27.664,0,41.578c-16.152,0-32.291,0-48.55,0
	c0-3.547,0-7.085,0-10.623c-0.153-0.011-0.307-0.021-0.46-0.032c-0.104,1.388-0.197,2.775-0.319,4.162
	c-0.152,1.737-0.26,3.483-0.526,5.204c-0.146,0.941-1.759,1.302-3.112,0.756c-0.474-0.191-0.94-0.468-1.326-0.802
	c-2.737-2.368-5.992-2.707-9.366-2.273c-6.212,0.799-12.41,1.71-18.612,2.587c-3.458,0.488-6.74-0.441-10.045-1.198
	c-2.564-0.587-5.101-1.333-7.691-1.748c-3.51-0.562-6.866,0.559-10.27,1.252c-8.403,1.713-16.825,3.335-25.261,4.875
	c-1.663,0.303-3.434,0.191-5.135,0.039c-0.994-0.089-2.119-0.417-2.891-1.016c-4.086-3.167-7.072-7.211-6.924-12.523
	c0.132-4.756,0.976-9.489,3.7-13.688c3.16-4.871,4.855-10.355,6.293-15.946c0.692-2.691,1.92-5.241,2.698-7.916
	c0.905-3.115,2.777-5.638,4.614-8.191c1.533-2.132,3.666-3.516,6.077-4.523c1.174-0.49,2.348-1.036,3.408-1.73
	c2.448-1.604,3.181-3.958,2.427-6.728c-0.766-2.809-0.846-5.566,0.851-8.187c0.492-0.76,0.483-1.831,0.784-2.732
	c0.363-1.087,0.725-2.189,1.246-3.204c0.542-1.054,1.641-1.298,2.589-0.812c1.549,0.795,3.036,0.867,4.776,0.84
	c2.42-0.038,4.684,1.156,6.555,2.849c0.585,0.529,1.175,1.071,1.834,1.499c1.042,0.676,1.636,1.525,1.778,2.805
	c0.267,2.412,0.278,4.737-0.69,7.056c-0.372,0.889-0.27,2.039-0.16,3.046c0.088,0.811-0.074,1.272-0.791,1.646
	c-0.354,0.185-0.671,0.54-0.879,0.892c-0.666,1.128-1.208,2.335-1.939,3.416c-0.242,0.357-0.928,0.627-1.378,0.584
	c-0.818-0.077-1.61-0.427-2.417-0.646c-1.888-0.513-3.207-0.003-4.143,1.692c-0.48,0.869-0.87,1.795-1.225,2.726
	c-0.415,1.088-0.209,2.127,0.16,3.245c2.166,6.561,7.292,10.309,12.861,13.596c3.041,1.794,5.496,4.239,8.017,6.625
	c3.164,2.994,6.252,6.069,9.449,9.028c0.981,0.908,2.221,1.534,3.325,2.312c1.3,0.917,2.584,1.857,3.872,2.793
	c0.768,0.558,1.543,1.108,2.287,1.699c0.239,0.19,0.387,0.498,0.577,0.752c-0.32,0.182-0.672,0.557-0.954,0.51
	C86.665,71.55,85.725,71.238,84.567,70.928z M37.632,66.57c0,0.793-0.002,1.312,0,1.832c0.003,0.864,0.438,1.322,1.298,1.408
	c7.271,0.725,14.539,1.472,21.811,2.176c3.04,0.295,5.994,0.783,8.715,2.33c1.156,0.657,2.466,1.092,3.755,1.451
	c1.417,0.395,2.886,0.604,4.34,0.851c0.35,0.06,0.729-0.049,1.094-0.081c-0.084-0.37-0.107-0.769-0.263-1.105
	c-0.752-1.631-1.67-3.197-2.277-4.878c-0.561-1.552-1.47-2.732-2.776-3.645c-3.177-2.218-6.371-4.41-9.561-6.609
	c-2.462-1.698-4.95-3.359-7.384-5.097c-2.24-1.599-4.419-3.284-6.636-4.917c-0.647-0.477-1.144-0.464-1.383,0.469
	c-0.578,2.26-2.088,3.736-3.969,5.043c-1.241,0.862-2.256,2.103-3.223,3.294c-0.824,1.016-1.429,2.208-2.142,3.314
	C38.16,63.76,37.229,65.09,37.632,66.57z"/>
</svg>
