<?xml version="1.0" encoding="utf-8"?>
<!-- Generator: Adobe Illustrator 24.0.3, SVG Export Plug-In . SVG Version: 6.00 Build 0)  -->
<svg version="1.1" id="Layer_1" xmlns="http://www.w3.org/2000/svg" xmlns:xlink="http://www.w3.org/1999/xlink" x="0px" y="0px"
	 viewBox="0 0 18 18" style="enable-background:new 0 0 18 18;" xml:space="preserve">
<style type="text/css">
	.st0{fill:none;}
	.st1{fill:#666666;}
</style>
<path class="st0" d="M0,0h18v18H0V0z"/>
<path class="st1" d="M14.2,6H3.8C2.5,6,1.5,7,1.5,8.2v4.5h3v3h9v-3h3V8.2C16.5,7,15.5,6,14.2,6z M12,14.2H6v-3.8h6V14.2z M14.2,9
	c-0.4,0-0.8-0.3-0.8-0.8s0.3-0.8,0.8-0.8S15,7.8,15,8.2S14.7,9,14.2,9z M13.5,2.2h-9v3h9V2.2z"/>
</svg>
